<?xml version="1.0" standalone="no"?><!DOCTYPE svg PUBLIC "-//W3C//DTD SVG 1.1//EN" "http://www.w3.org/Graphics/SVG/1.1/DTD/svg11.dtd"><svg class="icon" width="200px" height="200.00px" viewBox="0 0 1024 1024" version="1.1" xmlns="http://www.w3.org/2000/svg"><path fill="#81d8d0" d="M218.06 121.344l-36.863-54.272L224.922 0h140.236l-85.094 121.344h-62.003z m24.526 446.976L296.704 512l47.258 56.32-29.39 395.264L259.227 1024l-46.03-60.928 29.39-394.752z m31.13-423.936L383.59 24.576l-31.078 422.4L296.704 512l-45.158-65.536 22.17-302.08z m429.618-23.04L666.47 67.072 710.195 0h140.237l-85.094 121.344h-62.004zM727.86 568.32L781.978 512l47.257 56.32-29.389 395.264L744.448 1024l-46.029-60.928 29.44-394.752z m31.079-423.936L868.813 24.576l-31.079 422.4L781.926 512l-45.158-65.536 22.17-302.08z" /></svg>